HIERARCHY
ROOT Hips
{
	OFFSET 0.00000 0.00000 0.00000
	CHANNELS 6 Xposition Yposition Zposition Zrotation Yrotation Xrotation 
	JOINT LHipJoint
	{
		OFFSET 0 0 0
		CHANNELS 3 Zrotation Yrotation Xrotation
		JOINT LeftHip
		{
			OFFSET 1.62964 -1.40469 0.78906
			CHANNELS 3 Zrotation Yrotation Xrotation
			JOINT LeftKnee
			{
				OFFSET 2.29640 -6.30932 0.00000
				CHANNELS 3 Zrotation Yrotation Xrotation
				JOINT LeftAnkle
				{
					OFFSET 2.29451 -6.30412 0.00000
					CHANNELS 3 Zrotation Yrotation Xrotation
					JOINT LeftToe
					{
						OFFSET 0.03611 -0.09921 1.56387
						CHANNELS 3 Zrotation Yrotation Xrotation
						End Site
						{
							OFFSET 0.00000 -0.00000 0.80291
						}
					}
				}
			}
		}
	}
	JOINT RHipJoint
	{
		OFFSET 0 0 0
		CHANNELS 3 Zrotation Yrotation Xrotation
		JOINT RightHip
		{
			OFFSET -1.73712 -1.40469 0.78906
			CHANNELS 3 Zrotation Yrotation Xrotation
			JOINT RightKnee
			{
				OFFSET -2.28137 -6.26801 0.00000
				CHANNELS 3 Zrotation Yrotation Xrotation
				JOINT RightAnkle
				{
					OFFSET -2.28681 -6.28298 0.00000
					CHANNELS 3 Zrotation Yrotation Xrotation
					JOINT RightToe
					{
						OFFSET -0.15927 -0.43759 1.61103
						CHANNELS 3 Zrotation Yrotation Xrotation
						End Site
						{
							OFFSET -0.00000 -0.00000 0.84630
						}
					}
				}
			}
		}
	}
	JOINT lowerback
	{
		OFFSET 0 0 0
		CHANNELS 3 Zrotation Yrotation Xrotation
		JOINT Chest
		{
			OFFSET -0.04227 2.04338 -0.00225
			CHANNELS 3 Zrotation Yrotation Xrotation
			JOINT Chest2
			{
				OFFSET -0.02148 2.04482 -0.04273
				CHANNELS 3 Zrotation Yrotation Xrotation
				JOINT lowerneck
				{
					OFFSET 0 0 0
					CHANNELS 3 Zrotation Yrotation Xrotation
					JOINT Neck
					{
						OFFSET 0.09180 1.44629 0.19359
						CHANNELS 3 Zrotation Yrotation Xrotation
						JOINT Head
						{
							OFFSET 0.00887 1.40645 0.14750
							CHANNELS 3 Zrotation Yrotation Xrotation
							End Site
							{
								OFFSET -0.00669 1.50671 0.03707
							}
						}
					}
				}
				JOINT LeftCollar
				{
					OFFSET 0 0 0
					CHANNELS 3 Zrotation Yrotation Xrotation
					JOINT LeftShoulder
					{
						OFFSET 2.17674 1.86763 -0.06520
CHANNELS 3 Zrotation Xrotation Yrotation
						JOINT LeftElbow
						{
OFFSET 0 -4.657760 0.000000
CHANNELS 3 Zrotation Xrotation Yrotation
							JOINT LeftWrist
							{
OFFSET 0 -3.555390 0.000000
CHANNELS 3 Zrotation Xrotation Yrotation
								JOINT lhand
								{
									OFFSET 0 0 0
CHANNELS 3 Zrotation Xrotation Yrotation
									JOINT LFingers
									{
OFFSET 0 -0.707260 0.000000
CHANNELS 3 Zrotation Xrotation Yrotation
										End Site
										{
OFFSET 0 -0.570220 0.000000
										}
									}
								}
								JOINT LThumb
								{
OFFSET 0 0.000000 0.000000
CHANNELS 3 Zrotation Xrotation Yrotation
									End Site
									{
OFFSET 0 -0.578920 0.578920
									}
								}
							}
						}
					}
				}
				JOINT RightCollar
				{
					OFFSET 0 0 0
					CHANNELS 3 Zrotation Yrotation Xrotation
					JOINT RightShoulder
					{
						OFFSET -2.80694 1.55459 -0.32496
CHANNELS 3 Zrotation Xrotation Yrotation
						JOINT RightElbow
						{
OFFSET 0 -4.719250 -0.000000
CHANNELS 3 Zrotation Xrotation Yrotation
							JOINT RightWrist
							{
OFFSET 0 -3.569900 0.000000
CHANNELS 3 Zrotation Xrotation Yrotation
								JOINT rhand
								{
									OFFSET 0 0 0
CHANNELS 3 Zrotation Xrotation Yrotation
									JOINT RFingers
									{
OFFSET 0 -0.507760 0.000000
CHANNELS 3 Zrotation Xrotation Yrotation
										End Site
										{
OFFSET 0 -0.409370 0.000000
										}
									}
								}
								JOINT RThumb
								{
OFFSET 0 0.000000 0.000000
CHANNELS 3 Zrotation Xrotation Yrotation
									End Site
									{
OFFSET 0 -0.415620 0.415620
									}
								}
							}
						}
					}
				}
			}
		}
	}
}
MOTION
Frames: 12
Frame Time: 0.008333333333333333
14.741071 16.298557 21.147710 162.570227 -17.244648 -158.556895 0.000000 0.000000 0.000000 14.450936 -17.135447 -56.087242 4.206194 12.429543 37.269350 -0.083107 8.673265 4.310233 2.550083 -9.928418 -28.745322 0.000000 0.000000 0.000000 0.285715 8.387317 -14.053990 -1.782818 -8.398127 23.930108 -2.929294 -7.928292 -35.821774 -0.442052 4.266143 -11.826621 -4.887042 0.372199 -20.522901 -3.173737 2.009153 2.180539 -0.184176 0.627928 14.046182 0.750125 4.394538 -1.998377 -1.321567 5.189485 19.879867 -0.275353 2.065024 6.413205 0.000000 0.000000 0.000000 5.950404 6.808566 -12.788263 11.900249 -19.654948 2.068605 22.005424 1.896768 14.286614 0.000000 0.000000 0.000000 -7.125000 0.000000 0.000000 -3.720214 14.644551 -2.664490 0.000000 0.000000 0.000000 -5.542699 -0.144453 13.468861 -19.088680 -29.528686 -5.074551 -15.669792 10.823212 53.041827 0.000000 0.000000 0.000000 7.125000 0.000000 0.000000 65.530830 77.165418 -53.066012
14.677626 16.285669 21.122221 162.569170 -17.244478 -158.616229 0.000000 0.000000 0.000000 14.668923 -17.335451 -55.576808 3.994517 12.152122 36.273502 -0.082883 9.010677 4.633221 2.432255 -9.713039 -28.052933 0.000000 0.000000 0.000000 0.173219 8.634788 -13.900562 -1.844616 -8.534361 24.349503 -3.007649 -8.022278 -36.279399 -0.458845 4.345215 -12.049920 -4.615563 0.358312 -20.736169 -3.195509 1.956702 2.342180 -0.381577 0.622341 14.374930 0.737416 4.439401 -1.849244 -1.421970 5.288960 19.533999 -0.303659 2.119766 6.280749 0.000000 0.000000 0.000000 6.040937 6.707624 -12.834583 11.989714 -19.789213 2.098825 22.004689 1.681278 14.963112 0.000000 0.000000 0.000000 -7.125000 0.000000 0.000000 -3.757242 13.924715 -2.748695 0.000000 0.000000 0.000000 -5.614048 -0.433484 13.737992 -19.155166 -29.611043 -5.107351 -16.139291 11.166709 53.570391 0.000000 0.000000 0.000000 7.125000 0.000000 0.000000 67.699906 77.487325 -55.408343
14.626224 16.269019 21.085644 162.466584 -17.029568 -158.672688 0.000000 0.000000 0.000000 14.696306 -17.320325 -54.865600 3.747150 11.813956 35.079818 -0.085836 9.426116 4.952114 2.475392 -9.792642 -28.308138 0.000000 0.000000 0.000000 -0.083703 8.912523 -13.736749 -1.891004 -8.635152 24.660644 -3.059138 -8.107967 -36.590320 -0.489845 4.486764 -12.450305 -4.872655 0.343440 -20.494943 -3.127106 1.964663 2.219170 -0.154377 0.607592 14.075610 0.652738 4.404157 -1.834095 -1.500283 5.230166 19.845502 -0.317736 2.060887 6.376497 0.000000 0.000000 0.000000 5.988685 7.009748 -12.862979 12.021567 -19.837001 2.109570 21.890550 1.587669 15.379021 0.000000 0.000000 0.000000 -7.125000 0.000000 0.000000 -3.857435 13.496170 -2.857503 0.000000 0.000000 0.000000 -5.807324 -0.265494 13.877670 -19.162906 -29.620618 -5.111153 -16.343596 11.373132 53.636071 0.000000 0.000000 0.000000 7.125000 0.000000 0.000000 67.927505 77.585522 -55.721369
14.563149 16.256710 21.057431 162.218681 -16.898498 -158.621295 0.000000 0.000000 0.000000 14.554837 -17.522513 -54.304346 3.516079 11.484962 33.935989 -0.085674 9.798457 5.290066 2.498465 -9.835192 -28.444591 0.000000 0.000000 0.000000 -0.595110 8.687632 -13.679498 -1.919648 -8.696644 24.850987 -3.108737 -7.909450 -36.740565 -0.521833 4.628869 -12.853100 -4.962513 0.311640 -20.352046 -3.192437 1.934534 2.180744 -0.187494 0.590147 13.946591 0.541512 4.414582 -1.965035 -1.456464 5.232626 20.086277 -0.281585 2.046156 6.471767 0.000000 0.000000 0.000000 6.003931 7.079722 -12.717663 12.020128 -19.834872 2.109089 21.916156 1.542406 15.618939 0.000000 0.000000 0.000000 -7.125000 0.000000 0.000000 -3.854121 13.238167 -2.875679 0.000000 0.000000 0.000000 -5.895293 -0.359838 13.938852 -19.125199 -29.573920 -5.092480 -16.275543 11.384492 53.007379 0.000000 0.000000 0.000000 7.125000 0.000000 0.000000 65.195436 77.385753 -53.001521
14.497168 16.242859 21.030714 162.074174 -16.806721 -158.553499 0.000000 0.000000 0.000000 14.513919 -17.655526 -53.877503 3.314783 11.186362 32.912872 -0.081914 10.046665 5.583249 2.426790 -9.702454 -28.019390 0.000000 0.000000 0.000000 -0.999631 8.491617 -13.615790 -1.931265 -8.721426 24.927772 -3.140464 -7.791500 -36.840524 -0.561038 4.796237 -13.328532 -4.828391 0.331318 -20.633122 -3.314323 1.971092 2.320346 -0.392625 0.615218 14.287424 0.600541 4.424776 -1.903106 -1.483327 5.261542 19.862379 -0.300113 2.073479 6.392346 0.000000 0.000000 0.000000 6.174202 6.894507 -12.728573 12.050765 -19.880726 2.119533 22.182877 1.315066 16.060366 0.000000 0.000000 0.000000 -7.125000 0.000000 0.000000 -3.702914 12.735791 -2.800304 0.000000 0.000000 0.000000 -5.837277 -0.688361 13.920624 -19.141702 -29.594289 -5.100606 -16.234813 11.406982 52.306521 0.000000 0.000000 0.000000 7.125000 0.000000 0.000000 62.183401 77.158370 -50.019175
14.427907 16.227178 21.004998 161.973972 -16.791031 -158.440977 0.000000 0.000000 0.000000 14.506691 -17.783839 -53.610307 3.149679 10.932649 32.053955 -0.075519 10.141494 5.786887 2.319479 -9.501539 -27.377547 0.000000 0.000000 0.000000 -1.327471 8.310505 -13.540004 -1.932637 -8.724374 24.936847 -3.164713 -7.795769 -36.965696 -0.622846 5.046932 -14.043076 -4.652202 0.343680 -20.989270 -3.406249 1.988535 2.440159 -0.593950 0.634224 14.649391 0.741054 4.410640 -1.730639 -1.645860 5.270052 19.587497 -0.379092 2.087102 6.283248 0.000000 0.000000 0.000000 6.344787 6.755324 -12.979787 12.118426 -19.981977 2.142618 22.489904 1.237462 15.948107 0.000000 0.000000 0.000000 -7.125000 0.000000 0.000000 -3.490012 12.818093 -2.635072 0.000000 0.000000 0.000000 -5.817537 -0.886107 14.034338 -19.258862 -29.738816 -5.158687 -16.616428 11.551704 51.764387 0.000000 0.000000 0.000000 7.125000 0.000000 0.000000 59.718076 77.118146 -47.767483
14.356728 16.211288 20.978538 161.871586 -16.865018 -158.349090 0.000000 0.000000 0.000000 14.466636 -18.001186 -53.380728 3.011937 10.713496 31.320471 -0.064422 10.097104 5.955428 2.272608 -9.412078 -27.093077 0.000000 0.000000 0.000000 -1.615504 8.067262 -13.404544 -1.937547 -8.734823 24.969274 -3.206436 -7.809243 -37.183407 -0.699135 5.343544 -14.891298 -4.572202 0.297291 -20.962036 -3.412320 1.901026 2.399451 -0.674412 0.602629 14.589261 0.745558 4.426691 -1.708560 -1.769258 5.295573 19.757827 -0.417479 2.080338 6.337753 0.000000 0.000000 0.000000 6.391226 6.861861 -13.362177 12.185593 -20.082409 2.165630 22.670167 1.601821 14.649644 0.000000 0.000000 0.000000 -7.125000 0.000000 0.000000 -3.289679 14.182445 -2.389127 0.000000 0.000000 0.000000 -5.959268 -0.747661 14.395373 -19.459546 -29.985330 -5.258715 -16.717697 11.314240 52.200117 0.000000 0.000000 0.000000 7.125000 0.000000 0.000000 61.548162 77.250304 -49.624695
14.300220 16.191096 20.938862 162.013257 -16.833968 -158.493033 0.000000 0.000000 0.000000 14.627063 -17.940796 -52.887668 2.875049 10.489671 30.577861 -0.044661 9.961687 6.206745 2.323510 -9.509128 -27.401659 0.000000 0.000000 0.000000 -1.563823 8.271505 -13.063121 -1.952362 -8.766195 25.066710 -3.253009 -7.979077 -37.504656 -0.755795 5.552027 -15.490162 -4.607088 0.298188 -20.677568 -3.299519 1.874611 2.315492 -0.531905 0.589116 14.315128 0.632846 4.517189 -1.743689 -1.672538 5.380330 20.166858 -0.361227 2.099200 6.469824 0.000000 0.000000 0.000000 6.451299 7.125030 -13.867471 12.239741 -20.163179 2.184246 22.817174 1.842063 13.457126 0.000000 0.000000 0.000000 -7.125000 0.000000 0.000000 -3.122416 15.441879 -2.181743 0.000000 0.000000 0.000000 -6.112799 -0.411600 14.743359 -19.711390 -30.292894 -5.385110 -15.482683 10.254416 54.377005 0.000000 0.000000 0.000000 7.125000 0.000000 0.000000 71.425754 77.399364 -58.802808
14.234576 16.174986 20.906406 162.006406 -16.769726 -158.410090 0.000000 0.000000 0.000000 14.629781 -17.941813 -52.654503 2.763428 10.301785 29.959848 -0.019691 9.814147 6.539136 2.434757 -9.718292 -28.069232 0.000000 0.000000 0.000000 -1.801175 8.215694 -12.941070 -1.950029 -8.761239 25.051212 -3.261629 -8.040811 -37.579310 -0.801018 5.712148 -15.951425 -4.515907 0.331143 -20.626207 -3.345826 1.888944 2.237143 -0.630770 0.606249 14.196012 0.580901 4.616576 -1.718102 -1.507693 5.480849 20.295922 -0.294185 2.150081 6.501913 0.000000 0.000000 0.000000 6.648944 7.276240 -14.192884 12.290624 -20.239033 2.201777 22.832875 1.168501 14.583552 0.000000 0.000000 0.000000 -7.125000 0.000000 0.000000 -3.174114 14.232983 -2.299892 0.000000 0.000000 0.000000 -6.106591 -0.247672 14.943556 -19.926596 -30.553831 -5.493969 -16.058360 10.472107 53.617810 0.000000 0.000000 0.000000 7.125000 0.000000 0.000000 67.920816 77.467395 -55.591721
14.165697 16.159473 20.873695 161.940806 -16.714765 -158.336513 0.000000 0.000000 0.000000 14.515514 -17.982591 -52.414356 2.657937 10.119348 29.364312 -0.016943 9.838081 6.605799 2.362863 -9.584079 -27.640177 0.000000 0.000000 0.000000 -2.076160 8.238299 -12.677343 -1.925473 -8.709114 24.889696 -3.232021 -8.344518 -37.589682 -0.887450 6.004154 -16.796592 -4.457932 0.296837 -21.114390 -3.369229 1.887526 2.488548 -0.695749 0.602437 14.788002 0.651731 4.537591 -1.594261 -1.709810 5.439096 19.740189 -0.377248 2.147067 6.310080 0.000000 0.000000 0.000000 6.705678 6.849933 -13.934564 12.296298 -20.247455 2.203727 22.842360 1.631242 13.952735 0.000000 0.000000 0.000000 -7.125000 0.000000 0.000000 -3.131474 14.907681 -2.223832 0.000000 0.000000 0.000000 -6.167049 -0.724863 15.056227 -19.979608 -30.617835 -5.521007 -15.635067 10.221943 54.604193 0.000000 0.000000 0.000000 7.125000 0.000000 0.000000 72.427136 77.497624 -59.855411
14.088414 16.144929 20.852135 162.058626 -16.852757 -158.428578 0.000000 0.000000 0.000000 14.515985 -18.121946 -52.214206 2.579838 9.981432 28.916885 -0.009993 9.767964 6.676099 2.314645 -9.492691 -27.348969 0.000000 0.000000 0.000000 -2.112943 7.948365 -12.398345 -1.923542 -8.705066 24.877016 -3.261397 -8.345786 -37.736285 -1.000627 6.363144 -17.842632 -4.142846 0.238532 -21.022015 -3.303023 1.727898 2.580047 -0.852841 0.556690 14.850581 0.619700 4.448910 -1.545485 -1.863608 5.364699 19.428638 -0.427263 2.111490 6.204703 0.000000 0.000000 0.000000 6.688884 6.741499 -13.769570 12.329605 -20.297085 2.215293 22.991955 1.728115 14.043554 0.000000 0.000000 0.000000 -7.125000 0.000000 0.000000 -3.034374 14.793273 -2.161993 0.000000 0.000000 0.000000 -6.333841 -0.972174 15.175120 -20.007167 -30.650972 -5.535035 -15.929532 10.470727 53.302040 0.000000 0.000000 0.000000 7.125000 0.000000 0.000000 66.588218 77.321971 -54.224009
14.012607 16.128327 20.829088 162.188701 -16.915591 -158.451306 0.000000 0.000000 0.000000 14.563503 -18.201842 -52.064193 2.517247 9.868953 28.553707 -0.008469 9.696630 6.651328 2.061975 -8.986476 -25.758212 0.000000 0.000000 0.000000 -2.195350 7.709891 -12.307042 -1.949782 -8.760620 25.049495 -3.338796 -8.106837 -37.995498 -1.038618 6.481539 -18.188199 -3.924885 0.231373 -20.880348 -3.230755 1.651456 2.601986 -0.918733 0.540830 14.796191 0.538651 4.367899 -1.553029 -1.939792 5.281368 19.293865 -0.443164 2.065875 6.161685 0.000000 0.000000 0.000000 6.734398 6.642750 -13.869628 12.317746 -20.279531 2.211194 22.918682 1.725843 13.726571 0.000000 0.000000 0.000000 -7.125000 0.000000 0.000000 -3.066856 15.141370 -2.162234 0.000000 0.000000 0.000000 -6.509570 -1.140283 15.259198 -20.037116 -30.687016 -5.550301 -15.781024 10.388701 52.483465 0.000000 0.000000 0.000000 7.125000 0.000000 0.000000 63.136871 77.036250 -50.754983
